<svg width="25" height="33" viewBox="0 0 25 33" fill="none" xmlns="http://www.w3.org/2000/svg">
<path fill-rule="evenodd" clip-rule="evenodd" d="M12.125 2.99023C18.954 2.99023 22.01 8.10994 22.01 13.1899C22.01 17.6699 18.82 23.6101 12.527 30.8501C12.491 30.8801 12.441 30.92 12.396 30.96C12.35 30.92 12.296 30.8801 12.263 30.8501L11.739 30.25C7.63301 25.54 2.01001 19.0899 2.01001 13.1899C2.03385 10.5068 3.10454 7.93898 4.99396 6.03369C6.88337 4.1284 9.44212 3.03653 12.125 2.99023ZM12.125 0.990234C8.9145 1.04554 5.85227 2.35097 3.58972 4.62939C1.32717 6.90782 0.0428725 9.97914 0.0100098 13.1899C0.0100098 20.1199 6.44903 27.2099 10.78 32.1899C11.1875 32.6451 11.751 32.9309 12.359 32.9902H12.435C13.0418 32.9307 13.604 32.6448 14.01 32.1899C18.075 27.5199 24.01 19.8099 24.01 13.1899C24.01 6.56994 19.677 0.990234 12.125 0.990234ZM12 9C13.0662 8.9939 14.0911 9.41155 14.8493 10.1611C15.6075 10.9107 16.0369 11.9309 16.043 12.9971C16.0491 14.0632 15.6314 15.088 14.8818 15.8462C14.1323 16.6044 13.1122 17.0339 12.046 17.04C10.9763 17.0325 9.95252 16.6045 9.19556 15.8486C8.43859 15.0928 8.00916 14.0697 8 13C8 11.9391 8.42142 10.9215 9.17157 10.1714C9.92172 9.42124 10.9391 9 12 9ZM12.046 7.04004C10.8593 7.04004 9.69928 7.39198 8.71259 8.05127C7.72589 8.71056 6.95687 9.64778 6.50275 10.7441C6.04862 11.8405 5.9298 13.0466 6.16132 14.2104C6.39283 15.3743 6.96423 16.4436 7.80334 17.2827C8.64246 18.1218 9.7116 18.6933 10.8755 18.9248C12.0394 19.1563 13.2457 19.0376 14.3421 18.5835C15.4385 18.1294 16.3755 17.3602 17.0348 16.3735C17.6941 15.3868 18.046 14.2267 18.046 13.04C18.046 11.4487 17.4139 9.92258 16.2886 8.79736C15.1634 7.67214 13.6373 7.04004 12.046 7.04004Z" fill="#008ED6"/>
</svg>
