<svg xmlns="http://www.w3.org/2000/svg" width="15.937" height="15"><path id="Cup" d="M743.014 1600.31a5.186 5.186 0 01-5-5.34v-3.19a.5.5 0 01.5-.5h8.993a.5.5 0 01.5.5v3.19a5.185 5.185 0 01-4.993 5.34zm-4-8.03v2.69a4.01 4.01 0 107.993 0v-2.69h-7.993zm3.992 12.48a.5.5 0 01-.5-.5v-4.14a.5.5 0 011 0v4.14a.5.5 0 01-.497.5zm2.045 0h-4.042a.5.5 0 01-.5-.5.5.5 0 01.5-.5h4.042a.5.5 0 01.5.5.5.5 0 01-.497.5zm1.494 1.52h-7.03a.5.5 0 110-1h7.03a.5.5 0 01.003 1zm1.076-9.5a.5.5 0 01-.5-.5.5.5 0 01.5-.5 2.367 2.367 0 001.921-.71 2.717 2.717 0 00.465-1.79h-2.3a.5.5 0 01-.5-.5.5.5 0 01.5-.5h2.75a.5.5 0 01.49.4 4.016 4.016 0 01-.624 3.02 3.289 3.289 0 01-2.699 1.08zm-9.145 0a3.29 3.29 0 01-2.7-1.08 4.019 4.019 0 01-.623-3.02.5.5 0 01.49-.4h2.75a.5.5 0 01.5.5.5.5 0 01-.5.5h-2.3a2.711 2.711 0 00.465 1.79 2.366 2.366 0 001.921.71.5.5 0 01.5.5.5.5 0 01-.5.5z" transform="translate(-735.094 -1591.28)" fill="#008ed6" fill-rule="evenodd"/></svg>