<svg xmlns="http://www.w3.org/2000/svg" width="10.531" height="15.97"><path id="Energy" d="M744.56 1664.34l-1.128 5.93 4.087.01-5.564 8.04 1.129-6.52-4.087-.02 5.563-7.44m0-1h-.08a.928.928 0 00-.432.17 1 1 0 00-.209.18.709.709 0 01-.052.07l-5.6 7.42a1 1 0 00-.084 1.04 1.029 1.029 0 00.889.55l2.887.02-.908 5.34a.994.994 0 00.59 1.1.941.941 0 00.4.09.919.919 0 00.766-.42l5.611-8.03a1 1 0 00-.806-1.59h-2.892l.9-4.71a.941.941 0 00.028-.23 1 1 0 00-.969-1h-.036z" transform="translate(-738 -1663.34)" fill="#008ed6" fill-rule="evenodd"/></svg>