<svg xmlns="http://www.w3.org/2000/svg" viewBox="0 0 256 256" width="50" height="50"><path d="M163.84 56.32h25.6a5.122 5.122 0 005.12-5.12V16.707c0-2.683-2.063-4.916-4.736-5.105-8.146-.579-24.059-1.362-35.502-1.362-31.442 0-51.922 18.842-51.922 53.084V97.28H66.56a5.122 5.122 0 00-5.12 5.12v35.84a5.122 5.122 0 005.12 5.12h35.84v97.28a5.122 5.122 0 005.12 5.12h35.84a5.122 5.122 0 005.12-5.12v-97.28h36.977a5.117 5.117 0 005.089-4.557l3.983-35.84a5.12 5.12 0 00-5.089-5.683h-40.96v-25.6c0-8.484 6.876-15.36 15.36-15.36z" font-family="none" font-weight="none" font-size="none" text-anchor="none"/></svg>