<svg xmlns="http://www.w3.org/2000/svg" viewBox="0 0 256 256" width="32" height="32"><path d="M128 32c-52.938 0-96 43.062-96 96s43.062 96 96 96 96-43.062 96-96-43.062-96-96-96zm0 16c20.281 0 38.656 7.625 52.75 20-1.5 2.094-3.531 4.625-6.75 7.75-6.844 6.625-17.781 14.594-34.5 20.75-11.312-20.906-22.406-36.625-29.75-46.5 5.844-1.344 11.969-2 18.25-2zm-34 7.5c6.562 8.594 18.25 24.531 30 45.75-32.531 8.625-62.375 9.719-74.25 9.75C55.062 86.281 71.688 65.938 94 55.5zm97.75 24.25C201.5 92.656 207.562 108.625 208 126c-7.125-1.594-17.625-3.156-31.25-3.25-7.094-.031-15.125.469-23.75 1.5-2-4.562-4.156-8.969-6.25-13.25 17.938-6.875 30.156-15.938 38.25-23.75a76.268 76.268 0 006.75-7.5zm-60.5 36c1.844 3.719 3.719 7.531 5.5 11.5-34.188 9.469-58.75 38.469-69.25 53C55.406 166.25 48 148 48 128v-1c10.812.125 45.188-.625 83.25-11.25zm45.5 22.75c14.281 0 24.156 2 30 3.5-3.719 21.312-15.75 39.594-32.75 51.5-3.188-19.125-8.438-37.312-14.75-54 6.312-.625 12.281-1 17.5-1zM143 142.25c7.188 18.25 13.219 38.281 16.25 59.5-9.562 4.031-20.188 6.25-31.25 6.25-18.344 0-35.281-6.156-48.75-16.5 8.219-11.25 32.375-41.188 63.75-49.25z" font-family="none" font-weight="none" font-size="none" text-anchor="none"/></svg>