<svg width="25" height="33" fill="none" xmlns="http://www.w3.org/2000/svg"><path fill-rule="evenodd" clip-rule="evenodd" d="M12.125 2.99c6.829 0 9.885 5.12 9.885 10.2 0 4.48-3.19 10.42-9.483 17.66-.036.03-.086.07-.131.11-.046-.04-.1-.08-.133-.11l-.524-.6C7.633 25.54 2.01 19.09 2.01 13.19a10.293 10.293 0 0110.115-10.2zm0-2A12.328 12.328 0 00.01 13.19c0 6.93 6.439 14.02 10.77 19 .408.455.971.74 1.579.8h.076a2.43 2.43 0 001.575-.8c4.065-4.67 10-12.38 10-19 0-6.62-4.333-12.2-11.885-12.2zM12 9a4.02 4.02 0 11.046 8.04A4.074 4.074 0 018 13a4 4 0 014-4zm.046-1.96a6 6 0 100 12 6 6 0 000-12z" fill="#008ED6"/></svg>