<svg xmlns="http://www.w3.org/2000/svg" width="32" height="32"><path id="Settings" d="M584.016 922.971l-2.567-.57a11.754 11.754 0 00-.763-1.841l1.389-2.314a2.3 2.3 0 000-2.828L580.66 914a2.346 2.346 0 00-2.894-.089l-2.251 1.434a11.941 11.941 0 00-1.83-.767l-.576-2.6A2.347 2.347 0 00571 910h-2a2.294 2.294 0 00-2 2l-.642 2.566a11.939 11.939 0 00-1.947.819l-2.308-1.47a2.348 2.348 0 00-2.895.089l-1.414 1.414a2.294 2.294 0 000 2.828l1.461 2.435a11.936 11.936 0 00-.705 1.72l-2.566.57A2.345 2.345 0 00554 925.08v2a2.3 2.3 0 002 2l2.6.649a11.7 11.7 0 00.658 1.593l-1.463 2.437a2.3 2.3 0 000 2.829l1.414 1.412a2.346 2.346 0 002.894.088l2.313-1.473a11.907 11.907 0 001.959.823l.641 2.56a2.293 2.293 0 002 2h2a2.347 2.347 0 002.109-1.985l.577-2.6a11.855 11.855 0 001.808-.758l2.256 1.437a2.346 2.346 0 002.894-.092l1.415-1.414a2.3 2.3 0 000-2.829l-1.39-2.316a11.912 11.912 0 00.716-1.714l2.6-.649a2.3 2.3 0 002-2v-2a2.345 2.345 0 00-1.985-2.107zm-.016 3.968a1.312 1.312 0 01-.448.192l-3.708.925-.344 1.051a10.144 10.144 0 01-.6 1.429l-.5.986 1.959 3.267a1.4 1.4 0 01.2.484l-1.315 1.314a1.6 1.6 0 01-.341-.14l-3.292-2.1-1.023.53a9.85 9.85 0 01-1.5.63l-1.09.353-.824 3.723a.769.769 0 01-.217.417h-1.8a1.3 1.3 0 01-.191-.448l-.921-3.681-1.065-.338a9.786 9.786 0 01-1.63-.685l-1.028-.543-3.292 2.1a.754.754 0 01-.409.142l-1.312-1.276a1.337 1.337 0 01.181-.449l2.046-3.408-.487-.98a9.857 9.857 0 01-.548-1.324l-.343-1.052-3.672-.918a1.394 1.394 0 01-.485-.2v-1.86a2.329 2.329 0 01.335-.142l3.773-.836.346-1.1a10.055 10.055 0 01.588-1.431l.487-.98-2.024-3.373a1.4 1.4 0 01-.2-.484l1.314-1.315a1.574 1.574 0 01.34.14l3.354 2.138 1.027-.542a10.029 10.029 0 011.622-.682l1.063-.339.912-3.648a1.411 1.411 0 01.2-.485H571c-.014.02.115.2.142.339l.839 3.794 1.089.352a9.973 9.973 0 011.523.639l1.023.532 3.224-2.054a.756.756 0 01.409-.143l1.312 1.276a1.312 1.312 0 01-.181.45l-1.98 3.3.5.987a9.59 9.59 0 01.64 1.527l.346 1.1 3.7.821a.7.7 0 01.435.241zm-13.988 5.07a6.01 6.01 0 116.024-6.01 6.024 6.024 0 01-6.023 6.01zM570 922a4 4 0 104 4 4 4 0 00-4-4z" transform="translate(-554 -910)" fill="#008ed6" fill-rule="evenodd"/></svg>