<svg xmlns="http://www.w3.org/2000/svg" width="16" height="14.88"><path id="Speedometer" d="M746.955 1714.15a.5.5 0 01-.262-.92 6.99 6.99 0 10-7.372-.03.5.5 0 01.158.69.51.51 0 01-.689.16 7.993 7.993 0 118.427.03.5.5 0 01-.262.07zm3.412-6.37h-.914a.5.5 0 010-1h.914a.5.5 0 010 1zm-13.751-.01h-.916a.5.5 0 01-.5-.5.5.5 0 01.5-.5h.914a.5.5 0 01.5.5.5.5 0 01-.498.5zm6.4-6.34a.5.5 0 01-.5-.5v-.92a.5.5 0 111 0v.92a.5.5 0 01-.496.5zm-3.167.78a.5.5 0 01-.434-.25l-.457-.79a.5.5 0 11.866-.5l.457.79a.5.5 0 01-.183.68.455.455 0 01-.245.07zm9.531 9.2a.567.567 0 01-.25-.07l-.792-.46a.5.5 0 11.5-.86l.792.45a.508.508 0 01.184.69.5.5 0 01-.43.25zm-11.874-6.86a.461.461 0 01-.25-.07l-.792-.45a.509.509 0 01-.183-.69.5.5 0 01.683-.18l.792.46a.5.5 0 01.184.68.5.5 0 01-.43.25zm-.791 6.86a.5.5 0 01-.433-.25.509.509 0 01.183-.69l.791-.45a.5.5 0 11.5.86l-.791.46a.567.567 0 01-.246.07zm11.874-6.86a.5.5 0 01-.25-.93l.791-.46a.5.5 0 01.684.18.508.508 0 01-.184.69l-.791.45a.461.461 0 01-.246.07zm-2.343-2.34a.455.455 0 01-.249-.07.5.5 0 01-.183-.68l.457-.79a.5.5 0 11.866.5l-.457.79a.5.5 0 01-.43.25zm-4.232 5.07a1 1 0 101-1 1 1 0 00-.996 1zm4.885-2.25a.493.493 0 01-.183.68l-3.464 2a.5.5 0 11-.5-.86l3.464-2a.5.5 0 01.684.18z" transform="translate(-735.031 -1699.28)" fill="#008ed6" fill-rule="evenodd"/></svg>